<svg xmlns="http://www.w3.org/2000/svg" width="100%" height="100%" viewBox="0 0 24 24" fill="none" preserveAspectRatio="xMidYMid meet" aria-hidden="true" role="img">
    <rect width="24" height="24" rx="6" fill="#FFFFFF" fill-opacity="0.1"></rect>
    <path d="M9.25821 16.8041V10.321H7.10524V16.8041H9.25843H9.25821ZM8.18218 9.43601C8.9328 9.43601 9.40012 8.93819 9.40012 8.31605C9.38607 7.67973 8.9328 7.1958 8.19645 7.1958C7.45959 7.1958 6.97834 7.67973 6.97834 8.31599C6.97834 8.93813 7.44549 9.43596 8.16807 9.43596H8.18201L8.18218 9.43601ZM10.4499 16.8041H12.6027V13.184C12.6027 12.9905 12.6168 12.7965 12.6736 12.6583C12.8292 12.271 13.1834 11.8701 13.7783 11.8701C14.5572 11.8701 14.8689 12.4646 14.8689 13.3362V16.8041H17.0217V13.0869C17.0217 11.0957 15.9597 10.169 14.5432 10.169C13.3819 10.169 12.8719 10.8187 12.5885 11.2611H12.6029V10.3212H10.45C10.4781 10.9294 10.4498 16.8043 10.4498 16.8043L10.4499 16.8041Z" fill="#FFFFFF"></path>
</svg>