<svg width="48" height="48" viewBox="0 0 48 48" fill="none" xmlns="http://www.w3.org/2000/svg">
<rect width="48" height="48" rx="24" fill="url(#paint0_radial_7336_4645)"/>
<path d="M16.5 15.75V32.25C16.5 32.4489 16.421 32.6397 16.2803 32.7803C16.1397 32.921 15.9489 33 15.75 33C15.5511 33 15.3603 32.921 15.2197 32.7803C15.079 32.6397 15 32.4489 15 32.25V15.75C15 15.5511 15.079 15.3603 15.2197 15.2197C15.3603 15.079 15.5511 15 15.75 15C15.9489 15 16.1397 15.079 16.2803 15.2197C16.421 15.3603 16.5 15.5511 16.5 15.75ZM19.5 23.25H28.5C28.8978 23.25 29.2794 23.092 29.5607 22.8107C29.842 22.5294 30 22.1478 30 21.75V18C30 17.6022 29.842 17.2206 29.5607 16.9393C29.2794 16.658 28.8978 16.5 28.5 16.5H19.5C19.1022 16.5 18.7206 16.658 18.4393 16.9393C18.158 17.2206 18 17.6022 18 18V21.75C18 22.1478 18.158 22.5294 18.4393 22.8107C18.7206 23.092 19.1022 23.25 19.5 23.25ZM32.25 24.75H19.5C19.1022 24.75 18.7206 24.908 18.4393 25.1893C18.158 25.4706 18 25.8522 18 26.25V30C18 30.3978 18.158 30.7794 18.4393 31.0607C18.7206 31.342 19.1022 31.5 19.5 31.5H32.25C32.6478 31.5 33.0294 31.342 33.3107 31.0607C33.592 30.7794 33.75 30.3978 33.75 30V26.25C33.75 25.8522 33.592 25.4706 33.3107 25.1893C33.0294 24.908 32.6478 24.75 32.25 24.75Z" fill="white"/>
<defs>
<radialGradient id="paint0_radial_7336_4645" cx="0" cy="0" r="1" gradientUnits="userSpaceOnUse" gradientTransform="translate(24.16 48) rotate(-90) scale(48 29.8646)">
<stop offset="0.200489" stop-color="#6D7A97"/>
<stop offset="0.822031" stop-color="#0E121B"/>
</radialGradient>
</defs>
</svg>
